<svg aria-hidden="true" style="position:absolute;width:0;height:0;overflow:hidden" xmlns="http://www.w3.org/2000/svg"><defs>
<symbol id="icon-Circle" viewBox="0 0 32 32"><path d="M16.145.159C7.446.159.37 7.236.37 15.934s7.076 15.775 15.775 15.775S31.92 24.632 31.92 15.934 24.844.159 16.145.159zm0 30.235c-7.973 0-14.46-6.487-14.46-14.46s6.487-14.46 14.46-14.46c7.973 0 14.46 6.487 14.46 14.46s-6.487 14.46-14.46 14.46z"/></symbol>
<symbol id="icon-Logo" viewBox="0 0 108 32"><path fill="#01996d" style="fill:var(--color2, #01996d)" d="M13.533 2.347h5.16l12.32 28.32h-7.04l-2.44-6h-11l-2.36 6h-6.88l12.24-28.32zm2.4 8.24-3.44 8.8h6.92l-3.48-8.8zM33.182.427h6v30.24h-6V.427zM43.572 11.227h6v19.44h-6v-19.44zm-.48-6.12c0-.96.333-1.773 1-2.44.693-.693 1.52-1.04 2.48-1.04s1.773.347 2.44 1.04c.693.667 1.04 1.48 1.04 2.44s-.347 1.787-1.04 2.48c-.667.667-1.48 1-2.44 1s-1.787-.333-2.48-1c-.667-.693-1-1.52-1-2.48zM51.843 11.227h6.48l4.92 13.2h.08l4.56-13.2h6.04l-7.68 19.44h-6.36l-8.04-19.44zM76.19 11.227h6v19.44h-6v-19.44zm-.48-6.12c0-.96.333-1.773 1-2.44.693-.693 1.52-1.04 2.48-1.04s1.773.347 2.44 1.04c.693.667 1.04 1.48 1.04 2.44s-.347 1.787-1.04 2.48c-.667.667-1.48 1-2.44 1s-1.787-.333-2.48-1c-.667-.693-1-1.52-1-2.48zM85.78 20.947c0-1.547.28-2.947.84-4.2s1.32-2.32 2.28-3.2c.987-.907 2.133-1.6 3.44-2.08 1.333-.48 2.747-.72 4.24-.72s2.893.24 4.2.72c1.333.48 2.48 1.173 3.44 2.08.987.88 1.76 1.947 2.32 3.2s.84 2.653.84 4.2c0 1.547-.28 2.947-.84 4.2s-1.333 2.333-2.32 3.24c-.96.88-2.107 1.56-3.44 2.04-1.307.48-2.707.72-4.2.72s-2.907-.24-4.24-.72a10.604 10.604 0 0 1-3.44-2.04c-.96-.907-1.72-1.987-2.28-3.24s-.84-2.653-.84-4.2zm6 0c0 1.467.413 2.653 1.24 3.56.853.907 2.04 1.36 3.56 1.36s2.693-.453 3.52-1.36c.853-.907 1.28-2.093 1.28-3.56s-.427-2.653-1.28-3.56c-.827-.907-2-1.36-3.52-1.36s-2.707.453-3.56 1.36c-.827.907-1.24 2.093-1.24 3.56z"/>
</symbol>
<symbol id="icon-Triangle" viewBox="0 0 26 32"><path fill="#fff" style="fill:var(--color1, #fff)" d="M24.175 15.007 2.616 1.148A1.539 1.539 0 0 0 .243 2.443v27.719a1.539 1.539 0 0 0 2.373 1.295l21.559-13.859c.439-.283.707-.772.707-1.295s-.268-1.012-.707-1.295zM3.323 27.34V5.264l17.171 11.038L3.323 27.34z"/></symbol>
<symbol id="icon-phone" viewBox="0 0 32 32"><path d="M22 20c-2 2-2 4-4 4s-4-2-6-4-4-4-4-6 2-2 4-4-4-8-6-8-6 6-6 6c0 4 4.109 12.109 8 16s12 8 16 8c0 0 6-4 6-6s-6-8-8-6z"/></symbol>
<symbol id="icon-location" viewBox="0 0 32 32"><path d="M16 0C10.477 0 6 4.477 6 10c0 10 10 22 10 22s10-12 10-22c0-5.523-4.477-10-10-10zm0 16a6 6 0 1 1 0-12 6 6 0 0 1 0 12z"/></symbol>
<symbol id="icon-facebook2" viewBox="0 0 32 32"><path d="M29 0H3C1.35 0 0 1.35 0 3v26c0 1.65 1.35 3 3 3h13V18h-4v-4h4v-2c0-3.306 2.694-6 6-6h4v4h-4c-1.1 0-2 .9-2 2v2h6l-1 4h-5v14h9c1.65 0 3-1.35 3-3V3c0-1.65-1.35-3-3-3z"/></symbol>
<symbol id="icon-instagram" viewBox="0 0 32 32"><path d="M16 2.881c4.275 0 4.781.019 6.462.094 1.563.069 2.406.331 2.969.55a4.952 4.952 0 0 1 1.837 1.194 5.015 5.015 0 0 1 1.2 1.838c.219.563.481 1.412.55 2.969.075 1.688.094 2.194.094 6.463s-.019 4.781-.094 6.463c-.069 1.563-.331 2.406-.55 2.969a4.94 4.94 0 0 1-1.194 1.837 5.02 5.02 0 0 1-1.837 1.2c-.563.219-1.413.481-2.969.55-1.688.075-2.194.094-6.463.094s-4.781-.019-6.463-.094c-1.563-.069-2.406-.331-2.969-.55a4.952 4.952 0 0 1-1.838-1.194 5.02 5.02 0 0 1-1.2-1.837c-.219-.563-.481-1.413-.55-2.969-.075-1.688-.094-2.194-.094-6.463s.019-4.781.094-6.463c.069-1.563.331-2.406.55-2.969a4.964 4.964 0 0 1 1.194-1.838 5.015 5.015 0 0 1 1.838-1.2c.563-.219 1.412-.481 2.969-.55 1.681-.075 2.188-.094 6.463-.094zM16 0c-4.344 0-4.887.019-6.594.094-1.7.075-2.869.35-3.881.744-1.056.412-1.95.956-2.837 1.85a7.833 7.833 0 0 0-1.85 2.831C.444 6.538.169 7.7.094 9.4.019 11.113 0 11.656 0 16s.019 4.887.094 6.594c.075 1.7.35 2.869.744 3.881.413 1.056.956 1.95 1.85 2.837a7.82 7.82 0 0 0 2.831 1.844c1.019.394 2.181.669 3.881.744 1.706.075 2.25.094 6.594.094s4.888-.019 6.594-.094c1.7-.075 2.869-.35 3.881-.744 1.05-.406 1.944-.956 2.831-1.844s1.438-1.781 1.844-2.831c.394-1.019.669-2.181.744-3.881.075-1.706.094-2.25.094-6.594s-.019-4.887-.094-6.594c-.075-1.7-.35-2.869-.744-3.881a7.506 7.506 0 0 0-1.831-2.844A7.82 7.82 0 0 0 26.482.843C25.463.449 24.301.174 22.601.099c-1.712-.081-2.256-.1-6.6-.1z"/><path d="M16 7.781c-4.537 0-8.219 3.681-8.219 8.219s3.681 8.219 8.219 8.219 8.219-3.681 8.219-8.219A8.221 8.221 0 0 0 16 7.781zm0 13.55a5.331 5.331 0 1 1 0-10.663 5.331 5.331 0 0 1 0 10.663zM26.462 7.456a1.919 1.919 0 1 1-3.838 0 1.919 1.919 0 0 1 3.838 0z"/></symbol>
</defs></svg>
